<svg version="1.0" xmlns="http://www.w3.org/2000/svg" width="619" height="474"><path d="M319.5 460.1c-16.1-1-28.6-2.9-47-7-4.9-1.1-15.1-3-22.5-4.1-16.7-2.5-20.5-3.3-35-7.6-6.3-1.8-16.4-4.5-22.5-5.9-6-1.5-15-3.9-20-5.5-4.9-1.6-12.6-3.8-17-4.8-8.1-2.1-25.2-7-40.1-11.6-4.5-1.3-14.9-3.5-23-4.7-12.5-1.8-16.8-2-26.4-1.3-18.1 1.2-20.9 1-27.3-1.9C30.6 402 23.1 394 18 383.8c-5.5-11.3-6.7-17.9-4.6-25 1.9-6.7 9.3-18.3 17.2-26.9 9.2-9.9 19.9-23.1 21.7-26.6.9-1.7 2-3.3 2.5-3.5 1.9-.7 7.5-10.3 16-27.5 18.5-37 34.5-66.9 38.6-72.3 2.4-3 7-9.8 10.3-15 8.3-13.1 22.1-32.5 37.8-53.2 3.3-4.3 7.8-10.5 10-13.7 9.5-13.7 27.2-30.6 57-54.4 11-8.8 24.1-18.4 29-21.2 19.1-11 50.4-22.3 69.3-24.9 17.4-2.4 64.1-2.2 77 .3 5.4 1.1 12.7 2.4 16.4 3 3.6.6 8.6 1.8 11 2.7 2.3.9 11.1 3.3 19.4 5.4 16.1 4.1 22.9 6.7 41.9 16.3 13.9 7 17.1 9.8 41.9 36.7 32.1 34.8 37.9 42.3 39.2 50.8.8 5.5-1.6 11.2-7.1 16.7-3.7 3.7-5.1 4.4-16.5 7.3-6.9 1.7-23.5 6.1-37 9.7-13.5 3.6-29.9 7.6-36.5 9-20 4.1-28.8 6.3-32.5 7.8-1.9.8-8.7 2.4-15 3.6-6.3 1.1-14.6 3-18.5 4.1-19 5.5-47.5 11.1-68.2 13.5-9.3 1-21.5 3.6-42 8.9-59.5 15.3-67.7 18.1-88.7 30.6-19 11.4-26.1 18.6-27.3 27.9-.8 5.5 2.3 18 5.6 23.3 3.6 5.7 8.5 8.1 17.8 8.6 6 .3 8.2 0 14-2.3 10-4 24.4-11.4 37.7-19.4 6.5-3.8 15.1-8.4 19.2-10.1 7.3-3 36.6-17.8 45.4-22.8 2.5-1.4 13.7-7.2 25-12.9s24.6-12.5 29.5-15.3c11.6-6.4 27.2-12.6 38.3-15 4.8-1.1 21.1-4.6 36.2-8 15.1-3.3 32.5-6.7 38.5-7.4 6.1-.8 16-2.8 22-4.5 6.1-1.7 15-3.7 19.9-4.6 10.2-1.7 39.1-2.1 44.8-.5 9.5 2.7 15.8 11.1 19.9 26.5 1.1 4.4 2.9 10.8 4 14.3 1 3.5 2.7 11.8 3.6 18.4 1.6 11.3 1.6 13.5-.1 38-.9 14.3-2.3 29.9-3.1 34.6-1.9 11.9-5.3 27.2-6.4 28.6-.5.6-2.3 4.6-4 8.8-5 12.8-12.1 25.9-16.9 31.8-14.6 17.6-31.7 32.3-45.2 38.7-3.6 1.7-12.3 5.9-19.4 9.3-13 6.2-28.6 11-46.7 14.5-23.9 4.6-29.6 5.6-43.9 7.9-32.3 5.1-69.5 7.3-96.5 5.7z"/></svg>