<?xml version="1.0" standalone="no"?>
<!DOCTYPE svg PUBLIC "-//W3C//DTD SVG 20010904//EN"
 "http://www.w3.org/TR/2001/REC-SVG-20010904/DTD/svg10.dtd">
<svg version="1.0" xmlns="http://www.w3.org/2000/svg"
 width="619.000000pt" height="474.000000pt" viewBox="0 0 619.000000 474.000000"
 preserveAspectRatio="xMidYMid meet">

<g transform="translate(0.000000,474.000000) scale(0.100000,-0.100000)"
fill="#000000" stroke="none">
<path d="M0 2370 l0 -2370 3095 0 3095 0 0 2370 0 2370 -3095 0 -3095 0 0
-2370z m3940 2188 c41 -6 95 -17 119 -24 25 -8 61 -14 81 -14 38 0 100 -16
193 -50 32 -11 95 -27 140 -36 45 -8 114 -26 152 -40 109 -41 375 -173 408
-202 43 -39 179 -175 202 -204 11 -13 72 -80 135 -148 63 -69 133 -146 155
-171 22 -25 57 -65 78 -88 20 -23 37 -48 37 -55 0 -7 11 -24 24 -37 16 -16 28
-46 36 -86 12 -59 11 -63 -16 -113 -34 -63 -94 -116 -137 -123 -53 -9 -127
-27 -232 -59 -55 -16 -134 -38 -175 -48 -41 -9 -127 -32 -190 -49 -63 -17
-164 -40 -224 -52 -60 -11 -113 -22 -117 -24 -4 -3 -44 -12 -89 -21 -45 -8
-98 -24 -118 -34 -20 -10 -75 -24 -122 -30 -74 -9 -181 -34 -260 -60 -14 -5
-61 -16 -105 -25 -44 -10 -89 -21 -100 -26 -11 -4 -49 -11 -84 -15 -35 -3 -78
-11 -95 -16 -40 -12 -138 -27 -251 -37 -105 -10 -125 -14 -385 -81 -107 -28
-223 -57 -257 -65 -34 -8 -95 -26 -135 -39 -40 -13 -100 -29 -133 -35 -148
-29 -498 -216 -597 -319 -52 -54 -81 -125 -72 -177 32 -197 86 -260 234 -272
59 -5 74 -3 105 16 20 11 43 21 51 21 22 0 325 158 354 184 24 22 191 106 240
121 14 4 59 26 100 49 41 23 102 54 135 70 68 31 75 35 205 108 52 29 100 55
105 57 52 19 284 136 331 166 132 85 360 177 494 200 47 8 114 21 150 29 436
100 514 116 566 116 54 1 63 2 250 54 163 45 299 60 479 54 116 -4 147 -9 180
-26 41 -21 81 -58 108 -102 26 -41 77 -210 77 -253 0 -14 4 -28 9 -31 23 -14
67 -313 57 -388 -3 -24 -10 -122 -16 -218 -14 -233 -27 -350 -51 -438 -10 -40
-19 -85 -19 -100 0 -15 -13 -52 -30 -82 -16 -30 -29 -61 -30 -69 0 -18 -128
-278 -138 -283 -5 -2 -27 -28 -49 -59 -49 -66 -229 -245 -276 -274 -18 -11
-48 -32 -67 -46 -19 -15 -46 -30 -60 -34 -14 -4 -38 -16 -53 -27 -15 -11 -44
-24 -65 -30 -20 -6 -49 -19 -64 -29 -14 -11 -29 -19 -33 -19 -3 0 -44 -18 -90
-40 -46 -22 -91 -40 -99 -40 -8 0 -70 -16 -138 -35 -67 -19 -161 -40 -208 -46
-47 -6 -107 -17 -135 -24 -27 -8 -102 -21 -165 -30 -63 -10 -128 -21 -145 -25
-16 -5 -91 -14 -165 -20 -74 -6 -157 -15 -185 -21 -28 -6 -171 -10 -330 -10
-230 1 -301 5 -398 21 -65 11 -134 20 -153 20 -20 0 -45 5 -56 11 -27 15 -249
56 -398 75 -71 9 -170 31 -260 59 -138 42 -218 63 -340 89 -30 7 -75 22 -100
33 -25 11 -81 26 -125 33 -44 7 -92 18 -107 26 -15 8 -55 21 -90 30 -35 8 -80
20 -101 25 -22 5 -67 21 -100 35 -35 15 -114 35 -182 45 -266 41 -283 43 -379
30 -146 -20 -183 -18 -256 16 -78 35 -152 112 -195 199 -15 33 -33 68 -38 79
-18 35 -34 120 -30 155 12 96 91 222 224 358 14 15 42 49 62 75 20 27 50 61
66 77 15 16 36 45 45 64 9 20 21 36 25 36 5 0 18 15 30 33 11 17 25 39 30 47
6 8 19 33 29 55 10 22 34 67 52 100 18 33 46 87 62 120 60 124 297 584 309
599 52 64 85 111 144 206 39 62 90 139 115 172 25 33 52 72 60 86 16 26 30 44
78 102 16 19 46 62 67 95 21 33 64 90 96 127 32 37 66 84 76 105 27 58 280
306 437 429 130 102 210 166 246 196 47 40 99 78 106 78 4 0 39 20 78 44 39
24 82 47 96 51 14 4 57 22 95 40 39 18 93 40 120 49 28 9 99 32 158 52 69 23
140 39 198 44 50 5 93 11 96 14 10 10 548 5 623 -6z"/>
</g>
</svg>
