<svg xmlns="http://www.w3.org/2000/svg" xmlns:xlink="http://www.w3.org/1999/xlink" contentStyleType="text/css" height="926px" preserveAspectRatio="none" style="width:586px;height:926px;background:#FFFFFF;" version="1.1" viewBox="0 0 586 926" width="586px" zoomAndPan="magnify"><defs/><g><!--class AbstractUser--><g id="elem_AbstractUser"><rect codeLine="2" fill="#F1F1F1" height="145.7813" id="AbstractUser" rx="2.5" ry="2.5" style="stroke:#181818;stroke-width:0.5;" width="217.9395" x="7" y="246"/><ellipse cx="66.3804" cy="262" fill="#ADD1B2" rx="11" ry="11" style="stroke:#181818;stroke-width:1;"/><path d="M69.3491,267.6406 Q68.771,267.9375 68.1304,268.0781 Q67.4897,268.2344 66.7866,268.2344 Q64.2866,268.2344 62.9585,266.5938 Q61.646,264.9375 61.646,261.8125 Q61.646,258.6875 62.9585,257.0313 Q64.2866,255.375 66.7866,255.375 Q67.4897,255.375 68.1304,255.5313 Q68.7866,255.6875 69.3491,255.9844 L69.3491,258.7031 Q68.7241,258.125 68.1304,257.8594 Q67.5366,257.5781 66.9116,257.5781 Q65.5679,257.5781 64.8804,258.6563 Q64.1929,259.7188 64.1929,261.8125 Q64.1929,263.9063 64.8804,264.9844 Q65.5679,266.0469 66.9116,266.0469 Q67.5366,266.0469 68.1304,265.7813 Q68.7241,265.5 69.3491,264.9219 L69.3491,267.6406 Z " fill="#000000"/><text fill="#000000" font-family="sans-serif" font-size="14" lengthAdjust="spacing" textLength="90.6787" x="86.8804" y="266.8467">AbstractUser</text><line style="stroke:#181818;stroke-width:0.5;" x1="8" x2="223.9395" y1="278" y2="278"/><ellipse cx="18" cy="291.6484" fill="none" rx="3" ry="3" style="stroke:#038048;stroke-width:1;"/><text fill="#000000" font-family="sans-serif" font-size="14" lengthAdjust="spacing" textLength="142.1943" x="27" y="294.9951">password: CharField</text><ellipse cx="18" cy="307.9453" fill="none" rx="3" ry="3" style="stroke:#038048;stroke-width:1;"/><text fill="#000000" font-family="sans-serif" font-size="14" lengthAdjust="spacing" textLength="148.5928" x="27" y="311.292">is_staff: BooleanField</text><ellipse cx="18" cy="324.2422" fill="none" rx="3" ry="3" style="stroke:#038048;stroke-width:1;"/><text fill="#000000" font-family="sans-serif" font-size="14" lengthAdjust="spacing" textLength="159.9268" x="27" y="327.5889">is_active: BooleanField</text><ellipse cx="18" cy="340.5391" fill="none" rx="3" ry="3" style="stroke:#038048;stroke-width:1;"/><text fill="#000000" font-family="sans-serif" font-size="14" lengthAdjust="spacing" textLength="187.332" x="27" y="343.8857">is_superuser: BooleanField</text><ellipse cx="18" cy="356.8359" fill="none" rx="3" ry="3" style="stroke:#038048;stroke-width:1;"/><text fill="#000000" font-family="sans-serif" font-size="14" lengthAdjust="spacing" textLength="177.0098" x="27" y="360.1826">last_login: DateTimeField</text><ellipse cx="18" cy="373.1328" fill="none" rx="3" ry="3" style="stroke:#038048;stroke-width:1;"/><text fill="#000000" font-family="sans-serif" font-size="14" lengthAdjust="spacing" textLength="191.9395" x="27" y="376.4795">date_joined: DateTimeField</text><line style="stroke:#181818;stroke-width:0.5;" x1="8" x2="223.9395" y1="383.7813" y2="383.7813"/></g><!--class Image--><g id="elem_Image"><rect codeLine="12" fill="#F1F1F1" height="64.2969" id="Image" rx="2.5" ry="2.5" style="stroke:#181818;stroke-width:0.5;" width="162.5068" x="155.5" y="798"/><ellipse cx="210.5806" cy="814" fill="#ADD1B2" rx="11" ry="11" style="stroke:#181818;stroke-width:1;"/><path d="M213.5493,819.6406 Q212.9712,819.9375 212.3306,820.0781 Q211.6899,820.2344 210.9868,820.2344 Q208.4868,820.2344 207.1587,818.5938 Q205.8462,816.9375 205.8462,813.8125 Q205.8462,810.6875 207.1587,809.0313 Q208.4868,807.375 210.9868,807.375 Q211.6899,807.375 212.3306,807.5313 Q212.9868,807.6875 213.5493,807.9844 L213.5493,810.7031 Q212.9243,810.125 212.3306,809.8594 Q211.7368,809.5781 211.1118,809.5781 Q209.7681,809.5781 209.0806,810.6563 Q208.3931,811.7188 208.3931,813.8125 Q208.3931,815.9063 209.0806,816.9844 Q209.7681,818.0469 211.1118,818.0469 Q211.7368,818.0469 212.3306,817.7813 Q212.9243,817.5 213.5493,816.9219 L213.5493,819.6406 Z " fill="#000000"/><text fill="#000000" font-family="sans-serif" font-size="14" lengthAdjust="spacing" textLength="43.8457" x="231.0806" y="818.8467">Image</text><line style="stroke:#181818;stroke-width:0.5;" x1="156.5" x2="317.0068" y1="830" y2="830"/><ellipse cx="166.5" cy="843.6484" fill="none" rx="3" ry="3" style="stroke:#038048;stroke-width:1;"/><text fill="#000000" font-family="sans-serif" font-size="14" lengthAdjust="spacing" textLength="136.5068" x="175.5" y="846.9951">filename: CharField</text><line style="stroke:#181818;stroke-width:0.5;" x1="156.5" x2="317.0068" y1="854.2969" y2="854.2969"/></g><!--class User--><g id="elem_User"><rect codeLine="16" fill="#F1F1F1" height="194.6719" id="User" rx="2.5" ry="2.5" style="stroke:#181818;stroke-width:0.5;" width="245.8711" x="172" y="469"/><ellipse cx="274.7305" cy="485" fill="#ADD1B2" rx="11" ry="11" style="stroke:#181818;stroke-width:1;"/><path d="M277.6992,490.6406 Q277.1211,490.9375 276.4805,491.0781 Q275.8398,491.2344 275.1367,491.2344 Q272.6367,491.2344 271.3086,489.5938 Q269.9961,487.9375 269.9961,484.8125 Q269.9961,481.6875 271.3086,480.0313 Q272.6367,478.375 275.1367,478.375 Q275.8398,478.375 276.4805,478.5313 Q277.1367,478.6875 277.6992,478.9844 L277.6992,481.7031 Q277.0742,481.125 276.4805,480.8594 Q275.8867,480.5781 275.2617,480.5781 Q273.918,480.5781 273.2305,481.6563 Q272.543,482.7188 272.543,484.8125 Q272.543,486.9063 273.2305,487.9844 Q273.918,489.0469 275.2617,489.0469 Q275.8867,489.0469 276.4805,488.7813 Q277.0742,488.5 277.6992,487.9219 L277.6992,490.6406 Z " fill="#000000"/><text fill="#000000" font-family="sans-serif" font-size="14" lengthAdjust="spacing" textLength="31.9102" x="295.2305" y="489.8467">User</text><line style="stroke:#181818;stroke-width:0.5;" x1="173" x2="416.8711" y1="501" y2="501"/><ellipse cx="183" cy="514.6484" fill="none" rx="3" ry="3" style="stroke:#038048;stroke-width:1;"/><text fill="#000000" font-family="sans-serif" font-size="14" lengthAdjust="spacing" textLength="105.6357" x="192" y="517.9951">id: IntegerField</text><ellipse cx="183" cy="530.9453" fill="none" rx="3" ry="3" style="stroke:#038048;stroke-width:1;"/><text fill="#000000" font-family="sans-serif" font-size="14" lengthAdjust="spacing" textLength="145.7217" x="192" y="534.292">username: CharField</text><ellipse cx="183" cy="547.2422" fill="none" rx="3" ry="3" style="stroke:#038048;stroke-width:1;"/><text fill="#000000" font-family="sans-serif" font-size="14" lengthAdjust="spacing" textLength="202.4463" x="192" y="550.5889">balance: PositiveIntegerField</text><ellipse cx="183" cy="563.5391" fill="none" rx="3" ry="3" style="stroke:#038048;stroke-width:1;"/><text fill="#000000" font-family="sans-serif" font-size="14" lengthAdjust="spacing" textLength="219.8711" x="192" y="566.8857">buy_count: PositiveIntegerField</text><ellipse cx="183" cy="579.8359" fill="none" rx="3" ry="3" style="stroke:#038048;stroke-width:1;"/><text fill="#000000" font-family="sans-serif" font-size="14" lengthAdjust="spacing" textLength="217.5127" x="192" y="583.1826">sell_count: PositiveIntegerField</text><ellipse cx="183" cy="596.1328" fill="none" rx="3" ry="3" style="stroke:#038048;stroke-width:1;"/><text fill="#000000" font-family="sans-serif" font-size="14" lengthAdjust="spacing" textLength="157.4385" x="192" y="599.4795">group: str {read-only}</text><ellipse cx="183" cy="612.4297" fill="none" rx="3" ry="3" style="stroke:#038048;stroke-width:1;"/><text fill="#000000" font-family="sans-serif" font-size="14" lengthAdjust="spacing" textLength="212.7617" x="192" y="615.7764">own_item_cnt: int {read-only}</text><line style="stroke:#181818;stroke-width:0.5;" x1="173" x2="416.8711" y1="623.0781" y2="623.0781"/><ellipse cx="183" cy="636.7266" fill="#84BE84" rx="3" ry="3" style="stroke:#038048;stroke-width:1;"/><text fill="#000000" font-family="sans-serif" font-size="14" lengthAdjust="spacing" textLength="187.9199" x="192" y="640.0732">avatar: ForeignKey(Image)</text><ellipse cx="183" cy="653.0234" fill="#84BE84" rx="3" ry="3" style="stroke:#038048;stroke-width:1;"/><text fill="#000000" font-family="sans-serif" font-size="14" lengthAdjust="spacing" textLength="171.5547" x="192" y="656.3701">__init__(*args, **kwargs)</text></g><!--class Item--><g id="elem_Item"><rect codeLine="28" fill="#F1F1F1" height="178.375" id="Item" rx="2.5" ry="2.5" style="stroke:#181818;stroke-width:0.5;" width="199.9746" x="354" y="741"/><ellipse cx="433.8027" cy="757" fill="#ADD1B2" rx="11" ry="11" style="stroke:#181818;stroke-width:1;"/><path d="M436.7715,762.6406 Q436.1934,762.9375 435.5527,763.0781 Q434.9121,763.2344 434.209,763.2344 Q431.709,763.2344 430.3809,761.5938 Q429.0684,759.9375 429.0684,756.8125 Q429.0684,753.6875 430.3809,752.0313 Q431.709,750.375 434.209,750.375 Q434.9121,750.375 435.5527,750.5313 Q436.209,750.6875 436.7715,750.9844 L436.7715,753.7031 Q436.1465,753.125 435.5527,752.8594 Q434.959,752.5781 434.334,752.5781 Q432.9902,752.5781 432.3027,753.6563 Q431.6152,754.7188 431.6152,756.8125 Q431.6152,758.9063 432.3027,759.9844 Q432.9902,761.0469 434.334,761.0469 Q434.959,761.0469 435.5527,760.7813 Q436.1465,760.5 436.7715,759.9219 L436.7715,762.6406 Z " fill="#000000"/><text fill="#000000" font-family="sans-serif" font-size="14" lengthAdjust="spacing" textLength="31.8691" x="454.3027" y="761.8467">Item</text><line style="stroke:#181818;stroke-width:0.5;" x1="355" x2="552.9746" y1="773" y2="773"/><ellipse cx="365" cy="786.6484" fill="none" rx="3" ry="3" style="stroke:#038048;stroke-width:1;"/><text fill="#000000" font-family="sans-serif" font-size="14" lengthAdjust="spacing" textLength="105.6357" x="374" y="789.9951">id: IntegerField</text><ellipse cx="365" cy="802.9453" fill="none" rx="3" ry="3" style="stroke:#038048;stroke-width:1;"/><text fill="#000000" font-family="sans-serif" font-size="14" lengthAdjust="spacing" textLength="115.1855" x="374" y="806.292">name: CharField</text><ellipse cx="365" cy="819.2422" fill="none" rx="3" ry="3" style="stroke:#038048;stroke-width:1;"/><text fill="#000000" font-family="sans-serif" font-size="14" lengthAdjust="spacing" textLength="151.2793" x="374" y="822.5889">description: TextField</text><ellipse cx="365" cy="835.5391" fill="none" rx="3" ry="3" style="stroke:#038048;stroke-width:1;"/><text fill="#000000" font-family="sans-serif" font-size="14" lengthAdjust="spacing" textLength="154.3691" x="374" y="838.8857">contactInfo: CharField</text><ellipse cx="365" cy="851.8359" fill="none" rx="3" ry="3" style="stroke:#038048;stroke-width:1;"/><text fill="#000000" font-family="sans-serif" font-size="14" lengthAdjust="spacing" textLength="165.6553" x="374" y="855.1826">tags: TaggableManager</text><ellipse cx="365" cy="868.1328" fill="none" rx="3" ry="3" style="stroke:#038048;stroke-width:1;"/><text fill="#000000" font-family="sans-serif" font-size="14" lengthAdjust="spacing" textLength="152.1816" x="374" y="871.4795">deleted: BooleanField</text><line style="stroke:#181818;stroke-width:0.5;" x1="355" x2="552.9746" y1="878.7813" y2="878.7813"/><ellipse cx="365" cy="892.4297" fill="#84BE84" rx="3" ry="3" style="stroke:#038048;stroke-width:1;"/><text fill="#000000" font-family="sans-serif" font-size="14" lengthAdjust="spacing" textLength="173.9746" x="374" y="895.7764">owner: ForeignKey(User)</text><ellipse cx="365" cy="908.7266" fill="#84BE84" rx="3" ry="3" style="stroke:#038048;stroke-width:1;"/><text fill="#000000" font-family="sans-serif" font-size="14" lengthAdjust="spacing" textLength="55.0293" x="374" y="912.0732">delete()</text></g><!--class Transaction--><g id="elem_Transaction"><rect codeLine="39" fill="#F1F1F1" height="145.7813" id="Transaction" rx="2.5" ry="2.5" style="stroke:#181818;stroke-width:0.5;" width="208.1709" x="371" y="246"/><ellipse cx="429.7617" cy="262" fill="#ADD1B2" rx="11" ry="11" style="stroke:#181818;stroke-width:1;"/><path d="M432.7305,267.6406 Q432.1523,267.9375 431.5117,268.0781 Q430.8711,268.2344 430.168,268.2344 Q427.668,268.2344 426.3398,266.5938 Q425.0273,264.9375 425.0273,261.8125 Q425.0273,258.6875 426.3398,257.0313 Q427.668,255.375 430.168,255.375 Q430.8711,255.375 431.5117,255.5313 Q432.168,255.6875 432.7305,255.9844 L432.7305,258.7031 Q432.1055,258.125 431.5117,257.8594 Q430.918,257.5781 430.293,257.5781 Q428.9492,257.5781 428.2617,258.6563 Q427.5742,259.7188 427.5742,261.8125 Q427.5742,263.9063 428.2617,264.9844 Q428.9492,266.0469 430.293,266.0469 Q430.918,266.0469 431.5117,265.7813 Q432.1055,265.5 432.7305,264.9219 L432.7305,267.6406 Z " fill="#000000"/><text fill="#000000" font-family="sans-serif" font-size="14" lengthAdjust="spacing" textLength="82.1475" x="450.2617" y="266.8467">Transaction</text><line style="stroke:#181818;stroke-width:0.5;" x1="372" x2="578.1709" y1="278" y2="278"/><ellipse cx="382" cy="291.6484" fill="none" rx="3" ry="3" style="stroke:#038048;stroke-width:1;"/><text fill="#000000" font-family="sans-serif" font-size="14" lengthAdjust="spacing" textLength="105.6357" x="391" y="294.9951">id: IntegerField</text><ellipse cx="382" cy="307.9453" fill="none" rx="3" ry="3" style="stroke:#038048;stroke-width:1;"/><text fill="#000000" font-family="sans-serif" font-size="14" lengthAdjust="spacing" textLength="182.1709" x="391" y="311.292">price: PositiveIntegerField</text><ellipse cx="382" cy="324.2422" fill="none" rx="3" ry="3" style="stroke:#038048;stroke-width:1;"/><text fill="#000000" font-family="sans-serif" font-size="14" lengthAdjust="spacing" textLength="167.8975" x="391" y="327.5889">seller: User {read-only}</text><line style="stroke:#181818;stroke-width:0.5;" x1="372" x2="578.1709" y1="334.8906" y2="334.8906"/><ellipse cx="382" cy="348.5391" fill="#84BE84" rx="3" ry="3" style="stroke:#038048;stroke-width:1;"/><text fill="#000000" font-family="sans-serif" font-size="14" lengthAdjust="spacing" textLength="171.1309" x="391" y="351.8857">buyer: ForeignKey(User)</text><ellipse cx="382" cy="364.8359" fill="#84BE84" rx="3" ry="3" style="stroke:#038048;stroke-width:1;"/><text fill="#000000" font-family="sans-serif" font-size="14" lengthAdjust="spacing" textLength="173.4893" x="391" y="368.1826">target: ForeignKey(Item)</text><ellipse cx="382" cy="381.1328" fill="#84BE84" rx="3" ry="3" style="stroke:#038048;stroke-width:1;"/><text fill="#000000" font-family="sans-serif" font-size="14" lengthAdjust="spacing" textLength="171.5547" x="391" y="384.4795">__init__(*args, **kwargs)</text></g><!--class Notification--><g id="elem_Notification"><rect codeLine="48" fill="#F1F1F1" height="162.0781" id="Notification" rx="2.5" ry="2.5" style="stroke:#181818;stroke-width:0.5;" width="300.1895" x="174" y="7"/><ellipse cx="279.6802" cy="23" fill="#ADD1B2" rx="11" ry="11" style="stroke:#181818;stroke-width:1;"/><path d="M282.6489,28.6406 Q282.0708,28.9375 281.4302,29.0781 Q280.7896,29.2344 280.0864,29.2344 Q277.5864,29.2344 276.2583,27.5938 Q274.9458,25.9375 274.9458,22.8125 Q274.9458,19.6875 276.2583,18.0313 Q277.5864,16.375 280.0864,16.375 Q280.7896,16.375 281.4302,16.5313 Q282.0864,16.6875 282.6489,16.9844 L282.6489,19.7031 Q282.0239,19.125 281.4302,18.8594 Q280.8364,18.5781 280.2114,18.5781 Q278.8677,18.5781 278.1802,19.6563 Q277.4927,20.7188 277.4927,22.8125 Q277.4927,24.9063 278.1802,25.9844 Q278.8677,27.0469 280.2114,27.0469 Q280.8364,27.0469 281.4302,26.7813 Q282.0239,26.5 282.6489,25.9219 L282.6489,28.6406 Z " fill="#000000"/><text fill="#000000" font-family="sans-serif" font-size="14" lengthAdjust="spacing" textLength="80.3291" x="300.1802" y="27.8467">Notification</text><line style="stroke:#181818;stroke-width:0.5;" x1="175" x2="473.1895" y1="39" y2="39"/><ellipse cx="185" cy="52.6484" fill="none" rx="3" ry="3" style="stroke:#038048;stroke-width:1;"/><text fill="#000000" font-family="sans-serif" font-size="14" lengthAdjust="spacing" textLength="105.6357" x="194" y="55.9951">id: IntegerField</text><ellipse cx="185" cy="68.9453" fill="none" rx="3" ry="3" style="stroke:#038048;stroke-width:1;"/><text fill="#000000" font-family="sans-serif" font-size="14" lengthAdjust="spacing" textLength="148.7705" x="194" y="72.292">unread: BooleanField</text><ellipse cx="185" cy="85.2422" fill="none" rx="3" ry="3" style="stroke:#038048;stroke-width:1;"/><text fill="#000000" font-family="sans-serif" font-size="14" lengthAdjust="spacing" textLength="107.0234" x="194" y="88.5889">verb: CharField</text><ellipse cx="185" cy="101.5391" fill="none" rx="3" ry="3" style="stroke:#038048;stroke-width:1;"/><text fill="#000000" font-family="sans-serif" font-size="14" lengthAdjust="spacing" textLength="186.1699" x="194" y="104.8857">timestamp: DateTimeField</text><ellipse cx="185" cy="117.8359" fill="none" rx="3" ry="3" style="stroke:#038048;stroke-width:1;"/><text fill="#000000" font-family="sans-serif" font-size="14" lengthAdjust="spacing" textLength="107.0166" x="194" y="121.1826">data: CharField</text><line style="stroke:#181818;stroke-width:0.5;" x1="175" x2="473.1895" y1="128.4844" y2="128.4844"/><ellipse cx="185" cy="142.1328" fill="#84BE84" rx="3" ry="3" style="stroke:#038048;stroke-width:1;"/><text fill="#000000" font-family="sans-serif" font-size="14" lengthAdjust="spacing" textLength="166.8037" x="194" y="145.4795">actor: ForeignKey(User)</text><ellipse cx="185" cy="158.4297" fill="#84BE84" rx="3" ry="3" style="stroke:#038048;stroke-width:1;"/><text fill="#000000" font-family="sans-serif" font-size="14" lengthAdjust="spacing" textLength="274.1895" x="194" y="161.7764">action_object: ForeignKey(Transaction)</text></g><!--reverse link AbstractUser to User--><g id="link_AbstractUser_User"><path codeLine="59" d="M179.3463,406.8733 C196.7763,430.7733 205.85,443.22 224.39,468.66 " fill="none" id="AbstractUser-backto-User" style="stroke:#181818;stroke-width:1;"/><polygon fill="none" points="168.74,392.33,174.4985,410.4087,184.194,403.3379,168.74,392.33" style="stroke:#181818;stroke-width:1;"/></g><!--link User to Image--><g id="link_User_Image"><path codeLine="62" d="M273.57,664.13 C263.11,711.27 252.5503,758.9126 245.2403,791.8426 " fill="none" id="User-to-Image" style="stroke:#181818;stroke-width:1;"/><polygon fill="#181818" points="243.94,797.7,249.7953,789.7807,245.0236,792.8188,241.9855,788.047,243.94,797.7" style="stroke:#181818;stroke-width:1;"/><text fill="#000000" font-family="sans-serif" font-size="13" lengthAdjust="spacing" textLength="26" x="267" y="707.0669">&#22836;&#20687;</text><text fill="#000000" font-family="sans-serif" font-size="13" lengthAdjust="spacing" textLength="8.271" x="263.796" y="683.6051">1</text><text fill="#000000" font-family="sans-serif" font-size="13" lengthAdjust="spacing" textLength="23.0356" x="220.0943" y="786.9151">1..*</text></g><!--link User to Item--><g id="link_User_Item"><path codeLine="63" d="M325.85,664.35 C332.53,680.41 340.26,696.53 349,711 C355.1,721.09 358.4577,726.3597 365.9077,736.0697 " fill="none" id="User-to-Item" style="stroke:#181818;stroke-width:1;"/><polygon fill="#181818" points="369.56,740.83,367.255,731.2547,366.5164,736.8631,360.908,736.1244,369.56,740.83" style="stroke:#181818;stroke-width:1;"/><text fill="#000000" font-family="sans-serif" font-size="13" lengthAdjust="spacing" textLength="26" x="350" y="707.0669">&#25317;&#26377;</text><text fill="#000000" font-family="sans-serif" font-size="13" lengthAdjust="spacing" textLength="8.271" x="319.7519" y="683.8405">1</text><text fill="#000000" font-family="sans-serif" font-size="13" lengthAdjust="spacing" textLength="23.0356" x="338.6175" y="729.8814">0..*</text></g><!--link Item to User--><g id="link_Item_User"><path codeLine="64" d="M407.96,740.76 C399.27,725.03 390.07,708.91 381,694 C375.07,684.24 371.9733,679.2285 365.4833,669.2585 " fill="none" id="Item-to-User" style="stroke:#181818;stroke-width:1;"/><polygon fill="#181818" points="362.21,664.23,363.7676,673.9549,364.9377,668.4204,370.4723,669.5905,362.21,664.23" style="stroke:#181818;stroke-width:1;"/><text fill="#000000" font-family="sans-serif" font-size="13" lengthAdjust="spacing" textLength="39" x="390" y="707.0669">&#25152;&#26377;&#32773;</text><text fill="#000000" font-family="sans-serif" font-size="13" lengthAdjust="spacing" textLength="8.271" x="395.8283" y="729.8056">1</text><text fill="#000000" font-family="sans-serif" font-size="13" lengthAdjust="spacing" textLength="8.271" x="358.6685" y="683.7121">1</text></g><!--link Transaction to Item--><g id="link_Transaction_Item"><path codeLine="65" d="M472.02,392.12 C468.24,483.85 461.9577,636.2051 457.8777,734.9651 " fill="none" id="Transaction-to-Item" style="stroke:#181818;stroke-width:1;"/><polygon fill="#181818" points="457.63,740.96,461.9981,732.1328,457.8364,735.9643,454.0049,731.8026,457.63,740.96" style="stroke:#181818;stroke-width:1;"/><text fill="#000000" font-family="sans-serif" font-size="13" lengthAdjust="spacing" textLength="26" x="469" y="571.0669">&#30446;&#26631;</text><text fill="#000000" font-family="sans-serif" font-size="13" lengthAdjust="spacing" textLength="8.271" x="463.3595" y="411.8877">1</text><text fill="#000000" font-family="sans-serif" font-size="13" lengthAdjust="spacing" textLength="8.271" x="449.6116" y="730.0221">1</text></g><!--link Transaction to User--><g id="link_Transaction_User"><path codeLine="66" d="M387.65,392.09 C378.41,401.63 369.62,411.69 362,422 C351.46,436.26 344.6979,447.096 336.4079,463.336 " fill="none" id="Transaction-to-User" style="stroke:#181818;stroke-width:1;"/><polygon fill="#181818" points="333.68,468.68,341.3346,462.4826,335.9533,464.2267,334.2092,458.8454,333.68,468.68" style="stroke:#181818;stroke-width:1;"/><text fill="#000000" font-family="sans-serif" font-size="13" lengthAdjust="spacing" textLength="26" x="363" y="435.0669">&#20080;&#23478;</text><text fill="#000000" font-family="sans-serif" font-size="13" lengthAdjust="spacing" textLength="8.271" x="370.948" y="411.8549">1</text><text fill="#000000" font-family="sans-serif" font-size="13" lengthAdjust="spacing" textLength="8.271" x="328.2415" y="458.0294">1</text></g><!--link Transaction to User--><g id="link_Transaction_User"><path codeLine="67" d="M426.93,392.27 C416.28,407.82 404.91,424.07 394,439 C386.84,448.8 382.8941,454.1458 375.2441,464.1958 " fill="none" id="Transaction-to-User-1" style="stroke:#181818;stroke-width:1;"/><polygon fill="#181818" points="371.61,468.97,380.244,464.2314,374.6384,464.9915,373.8784,459.3859,371.61,468.97" style="stroke:#181818;stroke-width:1;"/><text fill="#000000" font-family="sans-serif" font-size="13" lengthAdjust="spacing" textLength="26" x="406" y="435.0669">&#21334;&#23478;</text><text fill="#000000" font-family="sans-serif" font-size="13" lengthAdjust="spacing" textLength="8.271" x="414.1344" y="411.7991">1</text><text fill="#000000" font-family="sans-serif" font-size="13" lengthAdjust="spacing" textLength="8.271" x="369.1845" y="458.0132">1</text></g><!--link Notification to User--><g id="link_Notification_User"><path codeLine="68" d="M318.16,169.26 C316.43,193.88 314.58,221.05 313,246 C308.28,320.71 303.8643,399.3088 300.4343,462.6688 " fill="none" id="Notification-to-User" style="stroke:#181818;stroke-width:1;"/><polygon fill="#181818" points="300.11,468.66,304.5907,459.8894,300.3803,463.6673,296.6024,459.4569,300.11,468.66" style="stroke:#181818;stroke-width:1;"/><text fill="#000000" font-family="sans-serif" font-size="13" lengthAdjust="spacing" textLength="39" x="314" y="323.5669">&#21442;&#19982;&#32773;</text><text fill="#000000" font-family="sans-serif" font-size="13" lengthAdjust="spacing" textLength="8.271" x="309.2873" y="189.2345">1</text><text fill="#000000" font-family="sans-serif" font-size="13" lengthAdjust="spacing" textLength="8.271" x="292.2062" y="458.0079">1</text></g><!--link Notification to Transaction--><g id="link_Notification_Transaction"><path codeLine="69" d="M376.81,169.09 C393.31,194.11 408.0969,216.541 424.2069,240.971 " fill="none" id="Notification-to-Transaction" style="stroke:#181818;stroke-width:1;"/><polygon fill="#181818" points="427.51,245.98,425.8947,236.2645,424.7574,241.8059,419.2161,240.6686,427.51,245.98" style="stroke:#181818;stroke-width:1;"/><text fill="#000000" font-family="sans-serif" font-size="13" lengthAdjust="spacing" textLength="52" x="405" y="212.0669">&#21160;&#20316;&#23545;&#35937;</text><text fill="#000000" font-family="sans-serif" font-size="13" lengthAdjust="spacing" textLength="8.271" x="373.1608" y="189.0494">1</text><text fill="#000000" font-family="sans-serif" font-size="13" lengthAdjust="spacing" textLength="8.271" x="414.2053" y="234.7614">1</text></g><!--SRC=[dLHTYzD057tFhnZwijrg5tqD8lZ1GX75X_eSfibjd3MT2JEJrh8kBCeYTT5zyq4NL53qgRgiYBM8VwPfzsTufqbjqlG3p4lJd3DdxZdtpcoHkFzcDEZ5xtvDpeQM6r2bo8s6qfAw-e42IVOjWi-b486Ea9vDRZsaSfT1u2K0KuxIjDcqoKqX0g0yZw4CQyCAK4KXo0XtMOPZATe9XC-uJMvJ3NNMWWpiuITdJp0EtY9-O5bRgQ-vgLgB-Z1pqsG1SDg2h1jSbJ2pjXcArxW67xAUJScBowT0WmQKk_Zzlb3C62-kfMsgAHhU5HAOp-z0jpmjRJjLYBgEAoAkrsae28BDB5-AABG9zfBiIw1ULV2WUv1WeiCTfg7bk4Q3SLsaE0xZJ3jEkKAbhowJIkLHnxnjpvEgeSBwf9Qcv85o9Gir4zZQEZpM6SmLNEFCr7XJ5DPXqP1FphGg3KvJNw4QzNtQ2E0kvPYfdEqNW3PZKXoo12fdFDKbvSfChU3hhM6drbKZVT3vBcDOAHfAjdv8J8EDU3AA_z6PUqAp9dFfPXiHD_BBii4Gn4g3RP2DGeEIs1pHs0CtRpwJwYmXFAvuSRJ2LQURBXpEVqTw-7dS-nCVdK_EXrRkghhsf5gTHZOdfxGfNBfQ8jNgTVpTsQcKqWl19l77x_6pamNAbOHYvjicu-DFuzEUDVqt5oabtK6uTuZmnU6HbPsTB37LcRpjZzy_NybAvKQ3Rt7_noPM_FArOUNwl8nsydJqyvMfRIKpkn4kUF5bzFiq_ZguEFlm5m00]--></g></svg>