<svg xmlns="http://www.w3.org/2000/svg" xmlns:xlink="http://www.w3.org/1999/xlink" contentStyleType="text/css" height="781px" preserveAspectRatio="none" style="width:631px;height:781px;background:#FFFFFF;" version="1.1" viewBox="0 0 631 781" width="631px" zoomAndPan="magnify"><defs/><g><rect fill="none" height="323.2656" style="stroke:#000000;stroke-width:1.5;" width="535.8027" x="88.9438" y="360.4922"/><line style="stroke:#181818;stroke-width:0.5;stroke-dasharray:5.0,5.0;" x1="23" x2="23" y1="81.2969" y2="700.7578"/><line style="stroke:#181818;stroke-width:0.5;stroke-dasharray:5.0,5.0;" x1="125.9438" x2="125.9438" y1="81.2969" y2="700.7578"/><line style="stroke:#181818;stroke-width:0.5;stroke-dasharray:5.0,5.0;" x1="382.3589" x2="382.3589" y1="81.2969" y2="700.7578"/><line style="stroke:#181818;stroke-width:0.5;stroke-dasharray:5.0,5.0;" x1="573.9458" x2="573.9458" y1="81.2969" y2="700.7578"/><text fill="#000000" font-family="sans-serif" font-size="14" lengthAdjust="spacing" textLength="31.9102" x="5" y="77.9951">User</text><ellipse cx="23.9551" cy="13.5" fill="#E2E2F0" rx="8" ry="8" style="stroke:#181818;stroke-width:0.5;"/><path d="M23.9551,21.5 L23.9551,48.5 M10.9551,29.5 L36.9551,29.5 M23.9551,48.5 L10.9551,63.5 M23.9551,48.5 L36.9551,63.5 " fill="none" style="stroke:#181818;stroke-width:0.5;"/><text fill="#000000" font-family="sans-serif" font-size="14" lengthAdjust="spacing" textLength="31.9102" x="5" y="712.7529">User</text><ellipse cx="23.9551" cy="724.5547" fill="#E2E2F0" rx="8" ry="8" style="stroke:#181818;stroke-width:0.5;"/><path d="M23.9551,732.5547 L23.9551,759.5547 M10.9551,740.5547 L36.9551,740.5547 M23.9551,759.5547 L10.9551,774.5547 M23.9551,759.5547 L36.9551,774.5547 " fill="none" style="stroke:#181818;stroke-width:0.5;"/><rect fill="#E2E2F0" height="30.2969" rx="2.5" ry="2.5" style="stroke:#181818;stroke-width:0.5;" width="54.5303" x="98.9438" y="50"/><text fill="#000000" font-family="sans-serif" font-size="14" lengthAdjust="spacing" textLength="40.5303" x="105.9438" y="69.9951">Client</text><rect fill="#E2E2F0" height="30.2969" rx="2.5" ry="2.5" style="stroke:#181818;stroke-width:0.5;" width="54.5303" x="98.9438" y="699.7578"/><text fill="#000000" font-family="sans-serif" font-size="14" lengthAdjust="spacing" textLength="40.5303" x="105.9438" y="719.7529">Client</text><rect fill="#E2E2F0" height="30.2969" rx="2.5" ry="2.5" style="stroke:#181818;stroke-width:0.5;" width="59.9102" x="353.3589" y="50"/><text fill="#000000" font-family="sans-serif" font-size="14" lengthAdjust="spacing" textLength="45.9102" x="360.3589" y="69.9951">Server</text><rect fill="#E2E2F0" height="30.2969" rx="2.5" ry="2.5" style="stroke:#181818;stroke-width:0.5;" width="59.9102" x="353.3589" y="699.7578"/><text fill="#000000" font-family="sans-serif" font-size="14" lengthAdjust="spacing" textLength="45.9102" x="360.3589" y="719.7529">Server</text><rect fill="#E2E2F0" height="30.2969" rx="2.5" ry="2.5" style="stroke:#181818;stroke-width:0.5;" width="80.8008" x="533.9458" y="50"/><text fill="#000000" font-family="sans-serif" font-size="14" lengthAdjust="spacing" textLength="66.8008" x="540.9458" y="69.9951">Database</text><rect fill="#E2E2F0" height="30.2969" rx="2.5" ry="2.5" style="stroke:#181818;stroke-width:0.5;" width="80.8008" x="533.9458" y="699.7578"/><text fill="#000000" font-family="sans-serif" font-size="14" lengthAdjust="spacing" textLength="66.8008" x="540.9458" y="719.7529">Database</text><polygon fill="#181818" points="114.209,108.4297,124.209,112.4297,114.209,116.4297,118.209,112.4297" style="stroke:#181818;stroke-width:1;"/><line style="stroke:#181818;stroke-width:1;" x1="23.9551" x2="120.209" y1="112.4297" y2="112.4297"/><text fill="#000000" font-family="sans-serif" font-size="13" lengthAdjust="spacing" textLength="35.2993" x="30.9551" y="107.3638">Login</text><polygon fill="#181818" points="371.314,137.5625,381.314,141.5625,371.314,145.5625,375.314,141.5625" style="stroke:#181818;stroke-width:1;"/><line style="stroke:#181818;stroke-width:1;" x1="126.209" x2="377.314" y1="141.5625" y2="141.5625"/><text fill="#000000" font-family="sans-serif" font-size="13" lengthAdjust="spacing" textLength="74.4453" x="133.209" y="136.4966">POST /login</text><polygon fill="#181818" points="562.3462,166.6953,572.3462,170.6953,562.3462,174.6953,566.3462,170.6953" style="stroke:#181818;stroke-width:1;"/><line style="stroke:#181818;stroke-width:1;" x1="383.314" x2="568.3462" y1="170.6953" y2="170.6953"/><text fill="#000000" font-family="sans-serif" font-size="13" lengthAdjust="spacing" textLength="131.498" x="390.314" y="165.6294">Validate Credentials</text><polygon fill="#181818" points="394.314,195.8281,384.314,199.8281,394.314,203.8281,390.314,199.8281" style="stroke:#181818;stroke-width:1;"/><line style="stroke:#181818;stroke-width:1;stroke-dasharray:2.0,2.0;" x1="388.314" x2="573.3462" y1="199.8281" y2="199.8281"/><text fill="#000000" font-family="sans-serif" font-size="13" lengthAdjust="spacing" textLength="52.3301" x="400.314" y="194.7622">Success</text><polygon fill="#181818" points="137.209,224.9609,127.209,228.9609,137.209,232.9609,133.209,228.9609" style="stroke:#181818;stroke-width:1;"/><line style="stroke:#181818;stroke-width:1;stroke-dasharray:2.0,2.0;" x1="131.209" x2="382.314" y1="228.9609" y2="228.9609"/><text fill="#000000" font-family="sans-serif" font-size="13" lengthAdjust="spacing" textLength="93.3931" x="143.209" y="223.895">Session Token</text><polygon fill="#181818" points="114.209,254.0938,124.209,258.0938,114.209,262.0938,118.209,258.0938" style="stroke:#181818;stroke-width:1;"/><line style="stroke:#181818;stroke-width:1;" x1="23.9551" x2="120.209" y1="258.0938" y2="258.0938"/><text fill="#000000" font-family="sans-serif" font-size="13" lengthAdjust="spacing" textLength="78.2539" x="30.9551" y="253.0278">Accept Deal</text><polygon fill="#181818" points="371.314,283.2266,381.314,287.2266,371.314,291.2266,375.314,287.2266" style="stroke:#181818;stroke-width:1;"/><line style="stroke:#181818;stroke-width:1;" x1="126.209" x2="377.314" y1="287.2266" y2="287.2266"/><text fill="#000000" font-family="sans-serif" font-size="13" lengthAdjust="spacing" textLength="233.105" x="133.209" y="282.1606">POST /accept_deal/{notification_id}</text><polygon fill="#181818" points="562.3462,312.3594,572.3462,316.3594,562.3462,320.3594,566.3462,316.3594" style="stroke:#181818;stroke-width:1;"/><line style="stroke:#181818;stroke-width:1;" x1="383.314" x2="568.3462" y1="316.3594" y2="316.3594"/><text fill="#000000" font-family="sans-serif" font-size="13" lengthAdjust="spacing" textLength="133.4976" x="390.314" y="311.2935">Retrieve Notification</text><polygon fill="#181818" points="394.314,341.4922,384.314,345.4922,394.314,349.4922,390.314,345.4922" style="stroke:#181818;stroke-width:1;"/><line style="stroke:#181818;stroke-width:1;stroke-dasharray:2.0,2.0;" x1="388.314" x2="573.3462" y1="345.4922" y2="345.4922"/><text fill="#000000" font-family="sans-serif" font-size="13" lengthAdjust="spacing" textLength="109.7637" x="400.314" y="340.4263">Notification Data</text><path d="M88.9438,360.4922 L153.3867,360.4922 L153.3867,367.625 L143.3867,377.625 L88.9438,377.625 L88.9438,360.4922 " fill="#EEEEEE" style="stroke:#000000;stroke-width:1.5;"/><rect fill="none" height="323.2656" style="stroke:#000000;stroke-width:1.5;" width="535.8027" x="88.9438" y="360.4922"/><text fill="#000000" font-family="sans-serif" font-size="13" font-weight="bold" lengthAdjust="spacing" textLength="19.4429" x="103.9438" y="373.5591">alt</text><text fill="#000000" font-family="sans-serif" font-size="11" font-weight="bold" lengthAdjust="spacing" textLength="125.2002" x="168.3867" y="372.7026">[Notification Found]</text><polygon fill="#181818" points="562.3462,394.7578,572.3462,398.7578,562.3462,402.7578,566.3462,398.7578" style="stroke:#181818;stroke-width:1;"/><line style="stroke:#181818;stroke-width:1;" x1="383.314" x2="568.3462" y1="398.7578" y2="398.7578"/><text fill="#000000" font-family="sans-serif" font-size="13" lengthAdjust="spacing" textLength="135.186" x="390.314" y="393.6919">Retrieve Transaction</text><polygon fill="#181818" points="394.314,423.8906,384.314,427.8906,394.314,431.8906,390.314,427.8906" style="stroke:#181818;stroke-width:1;"/><line style="stroke:#181818;stroke-width:1;stroke-dasharray:2.0,2.0;" x1="388.314" x2="573.3462" y1="427.8906" y2="427.8906"/><text fill="#000000" font-family="sans-serif" font-size="13" lengthAdjust="spacing" textLength="111.4521" x="400.314" y="422.8247">Transaction Data</text><polygon fill="#181818" points="562.3462,453.0234,572.3462,457.0234,562.3462,461.0234,566.3462,457.0234" style="stroke:#181818;stroke-width:1;"/><line style="stroke:#181818;stroke-width:1;" x1="383.314" x2="568.3462" y1="457.0234" y2="457.0234"/><text fill="#000000" font-family="sans-serif" font-size="13" lengthAdjust="spacing" textLength="127.3848" x="390.314" y="451.9575">Update Item Owner</text><polygon fill="#181818" points="394.314,482.1563,384.314,486.1563,394.314,490.1563,390.314,486.1563" style="stroke:#181818;stroke-width:1;"/><line style="stroke:#181818;stroke-width:1;stroke-dasharray:2.0,2.0;" x1="388.314" x2="573.3462" y1="486.1563" y2="486.1563"/><text fill="#000000" font-family="sans-serif" font-size="13" lengthAdjust="spacing" textLength="103.543" x="400.314" y="481.0903">Update Success</text><polygon fill="#181818" points="562.3462,511.2891,572.3462,515.2891,562.3462,519.2891,566.3462,515.2891" style="stroke:#181818;stroke-width:1;"/><line style="stroke:#181818;stroke-width:1;" x1="383.314" x2="568.3462" y1="515.2891" y2="515.2891"/><text fill="#000000" font-family="sans-serif" font-size="13" lengthAdjust="spacing" textLength="136.8237" x="390.314" y="510.2231">Update User Balance</text><polygon fill="#181818" points="394.314,540.4219,384.314,544.4219,394.314,548.4219,390.314,544.4219" style="stroke:#181818;stroke-width:1;"/><line style="stroke:#181818;stroke-width:1;stroke-dasharray:2.0,2.0;" x1="388.314" x2="573.3462" y1="544.4219" y2="544.4219"/><text fill="#000000" font-family="sans-serif" font-size="13" lengthAdjust="spacing" textLength="103.543" x="400.314" y="539.356">Update Success</text><polygon fill="#181818" points="562.3462,569.5547,572.3462,573.5547,562.3462,577.5547,566.3462,573.5547" style="stroke:#181818;stroke-width:1;"/><line style="stroke:#181818;stroke-width:1;" x1="383.314" x2="568.3462" y1="573.5547" y2="573.5547"/><text fill="#000000" font-family="sans-serif" font-size="13" lengthAdjust="spacing" textLength="167.0322" x="390.314" y="568.4888">Mark Notification as Read</text><polygon fill="#181818" points="394.314,598.6875,384.314,602.6875,394.314,606.6875,390.314,602.6875" style="stroke:#181818;stroke-width:1;"/><line style="stroke:#181818;stroke-width:1;stroke-dasharray:2.0,2.0;" x1="388.314" x2="573.3462" y1="602.6875" y2="602.6875"/><text fill="#000000" font-family="sans-serif" font-size="13" lengthAdjust="spacing" textLength="103.543" x="400.314" y="597.6216">Update Success</text><polygon fill="#181818" points="137.209,627.8203,127.209,631.8203,137.209,635.8203,133.209,631.8203" style="stroke:#181818;stroke-width:1;"/><line style="stroke:#181818;stroke-width:1;stroke-dasharray:2.0,2.0;" x1="131.209" x2="382.314" y1="631.8203" y2="631.8203"/><text fill="#000000" font-family="sans-serif" font-size="13" lengthAdjust="spacing" textLength="47.7026" x="143.209" y="626.7544">200 OK</text><line style="stroke:#000000;stroke-width:1;stroke-dasharray:2.0,2.0;" x1="88.9438" x2="624.7466" y1="640.8203" y2="640.8203"/><text fill="#000000" font-family="sans-serif" font-size="11" font-weight="bold" lengthAdjust="spacing" textLength="151.0513" x="93.9438" y="651.0308">[Notification Not Found]</text><polygon fill="#181818" points="137.209,671.7578,127.209,675.7578,137.209,679.7578,133.209,675.7578" style="stroke:#181818;stroke-width:1;"/><line style="stroke:#181818;stroke-width:1;stroke-dasharray:2.0,2.0;" x1="131.209" x2="382.314" y1="675.7578" y2="675.7578"/><text fill="#000000" font-family="sans-serif" font-size="13" lengthAdjust="spacing" textLength="96.0146" x="143.209" y="670.6919">404 Not Found</text><!--SRC=[fPBFJiCm3CRlUGg_mBGAxTG34WmX8VuKqOxhP1A3eWMdIh9nGBmxQRgY53ecGM_v_FdtMNPH1kjWvSc95btGKhV80PP64uUHL9FRVNDTOC0dz2H41u3PwRwlX1lxebdqhqxlcqkuh-e6vYPLUwsh3fmI7j5eXO5WwKZ5Net6Yw4CiunKRwKaxxyeMNWTTMqP6hiX_ZdRMMniu_24vk24c3nh5JtpTxP1Fsk98KBNMdrCJlv0mMdQ4TnbxkdHSqSY23HXh5xQBIi1yVirgt787cMAwioJSPcfJpk4NRLfzLU1Ng5wutZiWyozTJZ24MAwm3aQP4d_PjwYsuoNXJvk1DMVoDb_SL8KK5qBCdvynEunSP2iSr4iCXEn-WG0]--></g></svg>