<svg xmlns="http://www.w3.org/2000/svg" xmlns:xlink="http://www.w3.org/1999/xlink" contentStyleType="text/css" height="1206px" preserveAspectRatio="none" style="width:711px;height:1206px;background:#FFFFFF;" version="1.1" viewBox="0 0 711 1206" width="711px" zoomAndPan="magnify"><defs/><g><rect fill="none" height="235.8672" style="stroke:#000000;stroke-width:1.5;" width="496.3364" x="208.0562" y="331.3594"/><rect fill="none" height="265" style="stroke:#000000;stroke-width:1.5;" width="570.4438" x="133.9487" y="697.7578"/><line style="stroke:#181818;stroke-width:0.5;stroke-dasharray:5.0,5.0;" x1="28" x2="28" y1="81.2969" y2="1125.4219"/><line style="stroke:#181818;stroke-width:0.5;stroke-dasharray:5.0,5.0;" x1="85.4873" x2="85.4873" y1="81.2969" y2="1125.4219"/><line style="stroke:#181818;stroke-width:0.5;stroke-dasharray:5.0,5.0;" x1="175.9487" x2="175.9487" y1="81.2969" y2="1125.4219"/><line style="stroke:#181818;stroke-width:0.5;stroke-dasharray:5.0,5.0;" x1="250.0562" x2="250.0562" y1="81.2969" y2="1125.4219"/><line style="stroke:#181818;stroke-width:0.5;stroke-dasharray:5.0,5.0;" x1="485.0723" x2="485.0723" y1="81.2969" y2="1125.4219"/><line style="stroke:#181818;stroke-width:0.5;stroke-dasharray:5.0,5.0;" x1="653.5918" x2="653.5918" y1="81.2969" y2="1125.4219"/><text fill="#000000" font-family="sans-serif" font-size="14" lengthAdjust="spacing" textLength="41.4873" x="5" y="77.9951">UserA</text><ellipse cx="28.7437" cy="13.5" fill="#E2E2F0" rx="8" ry="8" style="stroke:#181818;stroke-width:0.5;"/><path d="M28.7437,21.5 L28.7437,48.5 M15.7437,29.5 L41.7437,29.5 M28.7437,48.5 L15.7437,63.5 M28.7437,48.5 L41.7437,63.5 " fill="none" style="stroke:#181818;stroke-width:0.5;"/><text fill="#000000" font-family="sans-serif" font-size="14" lengthAdjust="spacing" textLength="41.4873" x="5" y="1137.417">UserA</text><ellipse cx="28.7437" cy="1149.2188" fill="#E2E2F0" rx="8" ry="8" style="stroke:#181818;stroke-width:0.5;"/><path d="M28.7437,1157.2188 L28.7437,1184.2188 M15.7437,1165.2188 L41.7437,1165.2188 M28.7437,1184.2188 L15.7437,1199.2188 M28.7437,1184.2188 L41.7437,1199.2188 " fill="none" style="stroke:#181818;stroke-width:0.5;"/><text fill="#000000" font-family="sans-serif" font-size="14" lengthAdjust="spacing" textLength="41.5146" x="62.4873" y="77.9951">UserB</text><ellipse cx="86.2446" cy="13.5" fill="#E2E2F0" rx="8" ry="8" style="stroke:#181818;stroke-width:0.5;"/><path d="M86.2446,21.5 L86.2446,48.5 M73.2446,29.5 L99.2446,29.5 M86.2446,48.5 L73.2446,63.5 M86.2446,48.5 L99.2446,63.5 " fill="none" style="stroke:#181818;stroke-width:0.5;"/><text fill="#000000" font-family="sans-serif" font-size="14" lengthAdjust="spacing" textLength="41.5146" x="62.4873" y="1137.417">UserB</text><ellipse cx="86.2446" cy="1149.2188" fill="#E2E2F0" rx="8" ry="8" style="stroke:#181818;stroke-width:0.5;"/><path d="M86.2446,1157.2188 L86.2446,1184.2188 M73.2446,1165.2188 L99.2446,1165.2188 M86.2446,1184.2188 L73.2446,1199.2188 M86.2446,1184.2188 L99.2446,1199.2188 " fill="none" style="stroke:#181818;stroke-width:0.5;"/><rect fill="#E2E2F0" height="30.2969" rx="2.5" ry="2.5" style="stroke:#181818;stroke-width:0.5;" width="64.1074" x="143.9487" y="50"/><text fill="#000000" font-family="sans-serif" font-size="14" lengthAdjust="spacing" textLength="50.1074" x="150.9487" y="69.9951">ClientA</text><rect fill="#E2E2F0" height="30.2969" rx="2.5" ry="2.5" style="stroke:#181818;stroke-width:0.5;" width="64.1074" x="143.9487" y="1124.4219"/><text fill="#000000" font-family="sans-serif" font-size="14" lengthAdjust="spacing" textLength="50.1074" x="150.9487" y="1144.417">ClientA</text><rect fill="#E2E2F0" height="30.2969" rx="2.5" ry="2.5" style="stroke:#181818;stroke-width:0.5;" width="64.1348" x="218.0562" y="50"/><text fill="#000000" font-family="sans-serif" font-size="14" lengthAdjust="spacing" textLength="50.1348" x="225.0562" y="69.9951">ClientB</text><rect fill="#E2E2F0" height="30.2969" rx="2.5" ry="2.5" style="stroke:#181818;stroke-width:0.5;" width="64.1348" x="218.0562" y="1124.4219"/><text fill="#000000" font-family="sans-serif" font-size="14" lengthAdjust="spacing" textLength="50.1348" x="225.0562" y="1144.417">ClientB</text><rect fill="#E2E2F0" height="30.2969" rx="2.5" ry="2.5" style="stroke:#181818;stroke-width:0.5;" width="59.9102" x="456.0723" y="50"/><text fill="#000000" font-family="sans-serif" font-size="14" lengthAdjust="spacing" textLength="45.9102" x="463.0723" y="69.9951">Server</text><rect fill="#E2E2F0" height="30.2969" rx="2.5" ry="2.5" style="stroke:#181818;stroke-width:0.5;" width="59.9102" x="456.0723" y="1124.4219"/><text fill="#000000" font-family="sans-serif" font-size="14" lengthAdjust="spacing" textLength="45.9102" x="463.0723" y="1144.417">Server</text><rect fill="#E2E2F0" height="30.2969" rx="2.5" ry="2.5" style="stroke:#181818;stroke-width:0.5;" width="80.8008" x="613.5918" y="50"/><text fill="#000000" font-family="sans-serif" font-size="14" lengthAdjust="spacing" textLength="66.8008" x="620.5918" y="69.9951">Database</text><rect fill="#E2E2F0" height="30.2969" rx="2.5" ry="2.5" style="stroke:#181818;stroke-width:0.5;" width="80.8008" x="613.5918" y="1124.4219"/><text fill="#000000" font-family="sans-serif" font-size="14" lengthAdjust="spacing" textLength="66.8008" x="620.5918" y="1144.417">Database</text><polygon fill="#181818" points="164.0024,108.4297,174.0024,112.4297,164.0024,116.4297,168.0024,112.4297" style="stroke:#181818;stroke-width:1;"/><line style="stroke:#181818;stroke-width:1;" x1="28.7437" x2="170.0024" y1="112.4297" y2="112.4297"/><text fill="#000000" font-family="sans-serif" font-size="13" lengthAdjust="spacing" textLength="59.1221" x="35.7437" y="107.3638">Add Item</text><polygon fill="#181818" points="474.0273,137.5625,484.0273,141.5625,474.0273,145.5625,478.0273,141.5625" style="stroke:#181818;stroke-width:1;"/><line style="stroke:#181818;stroke-width:1;" x1="176.0024" x2="480.0273" y1="141.5625" y2="141.5625"/><text fill="#000000" font-family="sans-serif" font-size="13" lengthAdjust="spacing" textLength="107.7705" x="183.0024" y="136.4966">POST /items/add</text><polygon fill="#181818" points="641.9922,166.6953,651.9922,170.6953,641.9922,174.6953,645.9922,170.6953" style="stroke:#181818;stroke-width:1;"/><line style="stroke:#181818;stroke-width:1;" x1="486.0273" x2="647.9922" y1="170.6953" y2="170.6953"/><text fill="#000000" font-family="sans-serif" font-size="13" lengthAdjust="spacing" textLength="65.6348" x="493.0273" y="165.6294">Save Item</text><polygon fill="#181818" points="497.0273,195.8281,487.0273,199.8281,497.0273,203.8281,493.0273,199.8281" style="stroke:#181818;stroke-width:1;"/><line style="stroke:#181818;stroke-width:1;stroke-dasharray:2.0,2.0;" x1="491.0273" x2="652.9922" y1="199.8281" y2="199.8281"/><text fill="#000000" font-family="sans-serif" font-size="13" lengthAdjust="spacing" textLength="73.8867" x="503.0273" y="194.7622">Item Saved</text><polygon fill="#181818" points="187.0024,224.9609,177.0024,228.9609,187.0024,232.9609,183.0024,228.9609" style="stroke:#181818;stroke-width:1;"/><line style="stroke:#181818;stroke-width:1;stroke-dasharray:2.0,2.0;" x1="181.0024" x2="485.0273" y1="228.9609" y2="228.9609"/><text fill="#000000" font-family="sans-serif" font-size="13" lengthAdjust="spacing" textLength="47.7026" x="193.0024" y="223.895">200 OK</text><polygon fill="#181818" points="238.1235,254.0938,248.1235,258.0938,238.1235,262.0938,242.1235,258.0938" style="stroke:#181818;stroke-width:1;"/><line style="stroke:#181818;stroke-width:1;" x1="86.2446" x2="244.1235" y1="258.0938" y2="258.0938"/><text fill="#000000" font-family="sans-serif" font-size="13" lengthAdjust="spacing" textLength="135.2749" x="93.2446" y="253.0278">Request Revive Item</text><polygon fill="#181818" points="474.0273,283.2266,484.0273,287.2266,474.0273,291.2266,478.0273,287.2266" style="stroke:#181818;stroke-width:1;"/><line style="stroke:#181818;stroke-width:1;" x1="250.1235" x2="480.0273" y1="287.2266" y2="287.2266"/><text fill="#000000" font-family="sans-serif" font-size="13" lengthAdjust="spacing" textLength="192.2959" x="257.1235" y="282.1606">POST /items/revive/{item_id}</text><polygon fill="#181818" points="641.9922,312.3594,651.9922,316.3594,641.9922,320.3594,645.9922,316.3594" style="stroke:#181818;stroke-width:1;"/><line style="stroke:#181818;stroke-width:1;" x1="486.0273" x2="647.9922" y1="316.3594" y2="316.3594"/><text fill="#000000" font-family="sans-serif" font-size="13" lengthAdjust="spacing" textLength="143.9648" x="493.0273" y="311.2935">Check Item &amp; Balance</text><path d="M208.0562,331.3594 L272.499,331.3594 L272.499,338.4922 L262.499,348.4922 L208.0562,348.4922 L208.0562,331.3594 " fill="#EEEEEE" style="stroke:#000000;stroke-width:1.5;"/><rect fill="none" height="235.8672" style="stroke:#000000;stroke-width:1.5;" width="496.3364" x="208.0562" y="331.3594"/><text fill="#000000" font-family="sans-serif" font-size="13" font-weight="bold" lengthAdjust="spacing" textLength="19.4429" x="223.0562" y="344.4263">alt</text><text fill="#000000" font-family="sans-serif" font-size="11" font-weight="bold" lengthAdjust="spacing" textLength="222.2559" x="287.499" y="343.5698">[Item Exists and Balance Sufficient]</text><polygon fill="#181818" points="497.0273,365.625,487.0273,369.625,497.0273,373.625,493.0273,369.625" style="stroke:#181818;stroke-width:1;"/><line style="stroke:#181818;stroke-width:1;stroke-dasharray:2.0,2.0;" x1="491.0273" x2="652.9922" y1="369.625" y2="369.625"/><text fill="#000000" font-family="sans-serif" font-size="13" lengthAdjust="spacing" textLength="32.335" x="503.0273" y="364.5591">Valid</text><polygon fill="#181818" points="641.9922,394.7578,651.9922,398.7578,641.9922,402.7578,645.9922,398.7578" style="stroke:#181818;stroke-width:1;"/><line style="stroke:#181818;stroke-width:1;" x1="486.0273" x2="647.9922" y1="398.7578" y2="398.7578"/><text fill="#000000" font-family="sans-serif" font-size="13" lengthAdjust="spacing" textLength="123.8936" x="493.0273" y="393.6919">Create Transaction</text><polygon fill="#181818" points="497.0273,423.8906,487.0273,427.8906,497.0273,431.8906,493.0273,427.8906" style="stroke:#181818;stroke-width:1;"/><line style="stroke:#181818;stroke-width:1;stroke-dasharray:2.0,2.0;" x1="491.0273" x2="652.9922" y1="427.8906" y2="427.8906"/><text fill="#000000" font-family="sans-serif" font-size="13" lengthAdjust="spacing" textLength="132.1455" x="503.0273" y="422.8247">Transaction Created</text><polygon fill="#181818" points="641.9922,453.0234,651.9922,457.0234,641.9922,461.0234,645.9922,457.0234" style="stroke:#181818;stroke-width:1;"/><line style="stroke:#181818;stroke-width:1;" x1="486.0273" x2="647.9922" y1="457.0234" y2="457.0234"/><text fill="#000000" font-family="sans-serif" font-size="13" lengthAdjust="spacing" textLength="118.9614" x="493.0273" y="451.9575">Notify Item Owner</text><polygon fill="#181818" points="497.0273,482.1563,487.0273,486.1563,497.0273,490.1563,493.0273,486.1563" style="stroke:#181818;stroke-width:1;"/><line style="stroke:#181818;stroke-width:1;stroke-dasharray:2.0,2.0;" x1="491.0273" x2="652.9922" y1="486.1563" y2="486.1563"/><text fill="#000000" font-family="sans-serif" font-size="13" lengthAdjust="spacing" textLength="108.3101" x="503.0273" y="481.0903">Notification Sent</text><polygon fill="#181818" points="261.1235,511.2891,251.1235,515.2891,261.1235,519.2891,257.1235,515.2891" style="stroke:#181818;stroke-width:1;"/><line style="stroke:#181818;stroke-width:1;stroke-dasharray:2.0,2.0;" x1="255.1235" x2="485.0273" y1="515.2891" y2="515.2891"/><text fill="#000000" font-family="sans-serif" font-size="13" lengthAdjust="spacing" textLength="47.7026" x="267.1235" y="510.2231">200 OK</text><line style="stroke:#000000;stroke-width:1;stroke-dasharray:2.0,2.0;" x1="208.0562" x2="704.3926" y1="524.2891" y2="524.2891"/><text fill="#000000" font-family="sans-serif" font-size="11" font-weight="bold" lengthAdjust="spacing" textLength="250.3843" x="213.0562" y="534.4995">[Item Not Found or Insufficient Balance]</text><polygon fill="#181818" points="261.1235,555.2266,251.1235,559.2266,261.1235,563.2266,257.1235,559.2266" style="stroke:#181818;stroke-width:1;"/><line style="stroke:#181818;stroke-width:1;stroke-dasharray:2.0,2.0;" x1="255.1235" x2="485.0273" y1="559.2266" y2="559.2266"/><text fill="#000000" font-family="sans-serif" font-size="13" lengthAdjust="spacing" textLength="211.9038" x="267.1235" y="554.1606">404 Not Found or 403 Forbidden</text><polygon fill="#181818" points="164.0024,591.3594,174.0024,595.3594,164.0024,599.3594,168.0024,595.3594" style="stroke:#181818;stroke-width:1;"/><line style="stroke:#181818;stroke-width:1;" x1="28.7437" x2="170.0024" y1="595.3594" y2="595.3594"/><text fill="#000000" font-family="sans-serif" font-size="13" lengthAdjust="spacing" textLength="123.2588" x="35.7437" y="590.2935">Accept Notification</text><polygon fill="#181818" points="474.0273,620.4922,484.0273,624.4922,474.0273,628.4922,478.0273,624.4922" style="stroke:#181818;stroke-width:1;"/><line style="stroke:#181818;stroke-width:1;" x1="176.0024" x2="480.0273" y1="624.4922" y2="624.4922"/><text fill="#000000" font-family="sans-serif" font-size="13" lengthAdjust="spacing" textLength="276.2627" x="183.0024" y="619.4263">POST /notification/accept/{notification_id}</text><polygon fill="#181818" points="641.9922,649.625,651.9922,653.625,641.9922,657.625,645.9922,653.625" style="stroke:#181818;stroke-width:1;"/><line style="stroke:#181818;stroke-width:1;" x1="486.0273" x2="647.9922" y1="653.625" y2="653.625"/><text fill="#000000" font-family="sans-serif" font-size="13" lengthAdjust="spacing" textLength="133.4976" x="493.0273" y="648.5591">Retrieve Notification</text><polygon fill="#181818" points="497.0273,678.7578,487.0273,682.7578,497.0273,686.7578,493.0273,682.7578" style="stroke:#181818;stroke-width:1;"/><line style="stroke:#181818;stroke-width:1;stroke-dasharray:2.0,2.0;" x1="491.0273" x2="652.9922" y1="682.7578" y2="682.7578"/><text fill="#000000" font-family="sans-serif" font-size="13" lengthAdjust="spacing" textLength="109.7637" x="503.0273" y="677.6919">Notification Data</text><path d="M133.9487,697.7578 L198.3916,697.7578 L198.3916,704.8906 L188.3916,714.8906 L133.9487,714.8906 L133.9487,697.7578 " fill="#EEEEEE" style="stroke:#000000;stroke-width:1.5;"/><rect fill="none" height="265" style="stroke:#000000;stroke-width:1.5;" width="570.4438" x="133.9487" y="697.7578"/><text fill="#000000" font-family="sans-serif" font-size="13" font-weight="bold" lengthAdjust="spacing" textLength="19.4429" x="148.9487" y="710.8247">alt</text><text fill="#000000" font-family="sans-serif" font-size="11" font-weight="bold" lengthAdjust="spacing" textLength="117.9438" x="213.3916" y="709.9683">[Notification Valid]</text><polygon fill="#181818" points="641.9922,732.0234,651.9922,736.0234,641.9922,740.0234,645.9922,736.0234" style="stroke:#181818;stroke-width:1;"/><line style="stroke:#181818;stroke-width:1;" x1="486.0273" x2="647.9922" y1="736.0234" y2="736.0234"/><text fill="#000000" font-family="sans-serif" font-size="13" lengthAdjust="spacing" textLength="127.3848" x="493.0273" y="730.9575">Update Item Owner</text><polygon fill="#181818" points="497.0273,761.1563,487.0273,765.1563,497.0273,769.1563,493.0273,765.1563" style="stroke:#181818;stroke-width:1;"/><line style="stroke:#181818;stroke-width:1;stroke-dasharray:2.0,2.0;" x1="491.0273" x2="652.9922" y1="765.1563" y2="765.1563"/><text fill="#000000" font-family="sans-serif" font-size="13" lengthAdjust="spacing" textLength="103.543" x="503.0273" y="760.0903">Update Success</text><polygon fill="#181818" points="641.9922,790.2891,651.9922,794.2891,641.9922,798.2891,645.9922,794.2891" style="stroke:#181818;stroke-width:1;"/><line style="stroke:#181818;stroke-width:1;" x1="486.0273" x2="647.9922" y1="794.2891" y2="794.2891"/><text fill="#000000" font-family="sans-serif" font-size="13" lengthAdjust="spacing" textLength="136.8237" x="493.0273" y="789.2231">Update User Balance</text><polygon fill="#181818" points="497.0273,819.4219,487.0273,823.4219,497.0273,827.4219,493.0273,823.4219" style="stroke:#181818;stroke-width:1;"/><line style="stroke:#181818;stroke-width:1;stroke-dasharray:2.0,2.0;" x1="491.0273" x2="652.9922" y1="823.4219" y2="823.4219"/><text fill="#000000" font-family="sans-serif" font-size="13" lengthAdjust="spacing" textLength="103.543" x="503.0273" y="818.356">Update Success</text><polygon fill="#181818" points="641.9922,848.5547,651.9922,852.5547,641.9922,856.5547,645.9922,852.5547" style="stroke:#181818;stroke-width:1;"/><line style="stroke:#181818;stroke-width:1;" x1="486.0273" x2="647.9922" y1="852.5547" y2="852.5547"/><text fill="#000000" font-family="sans-serif" font-size="13" lengthAdjust="spacing" textLength="80.9834" x="493.0273" y="847.4888">Notify Buyer</text><polygon fill="#181818" points="497.0273,877.6875,487.0273,881.6875,497.0273,885.6875,493.0273,881.6875" style="stroke:#181818;stroke-width:1;"/><line style="stroke:#181818;stroke-width:1;stroke-dasharray:2.0,2.0;" x1="491.0273" x2="652.9922" y1="881.6875" y2="881.6875"/><text fill="#000000" font-family="sans-serif" font-size="13" lengthAdjust="spacing" textLength="108.3101" x="503.0273" y="876.6216">Notification Sent</text><polygon fill="#181818" points="187.0024,906.8203,177.0024,910.8203,187.0024,914.8203,183.0024,910.8203" style="stroke:#181818;stroke-width:1;"/><line style="stroke:#181818;stroke-width:1;stroke-dasharray:2.0,2.0;" x1="181.0024" x2="485.0273" y1="910.8203" y2="910.8203"/><text fill="#000000" font-family="sans-serif" font-size="13" lengthAdjust="spacing" textLength="47.7026" x="193.0024" y="905.7544">200 OK</text><line style="stroke:#000000;stroke-width:1;stroke-dasharray:2.0,2.0;" x1="133.9487" x2="704.3926" y1="919.8203" y2="919.8203"/><text fill="#000000" font-family="sans-serif" font-size="11" font-weight="bold" lengthAdjust="spacing" textLength="128.5249" x="138.9487" y="930.0308">[Notification Invalid]</text><polygon fill="#181818" points="187.0024,950.7578,177.0024,954.7578,187.0024,958.7578,183.0024,954.7578" style="stroke:#181818;stroke-width:1;"/><line style="stroke:#181818;stroke-width:1;stroke-dasharray:2.0,2.0;" x1="181.0024" x2="485.0273" y1="954.7578" y2="954.7578"/><text fill="#000000" font-family="sans-serif" font-size="13" lengthAdjust="spacing" textLength="211.9038" x="193.0024" y="949.6919">404 Not Found or 403 Forbidden</text><polygon fill="#181818" points="474.0273,986.8906,484.0273,990.8906,474.0273,994.8906,478.0273,990.8906" style="stroke:#181818;stroke-width:1;"/><line style="stroke:#181818;stroke-width:1;" x1="250.1235" x2="480.0273" y1="990.8906" y2="990.8906"/><text fill="#000000" font-family="sans-serif" font-size="13" lengthAdjust="spacing" textLength="202.1538" x="257.1235" y="985.8247">GET /user/notifications/unread/</text><polygon fill="#181818" points="641.9922,1016.0234,651.9922,1020.0234,641.9922,1024.0234,645.9922,1020.0234" style="stroke:#181818;stroke-width:1;"/><line style="stroke:#181818;stroke-width:1;" x1="486.0273" x2="647.9922" y1="1020.0234" y2="1020.0234"/><text fill="#000000" font-family="sans-serif" font-size="13" lengthAdjust="spacing" textLength="140.2705" x="493.0273" y="1014.9575">Retrieve Notifications</text><polygon fill="#181818" points="497.0273,1045.1563,487.0273,1049.1563,497.0273,1053.1563,493.0273,1049.1563" style="stroke:#181818;stroke-width:1;"/><line style="stroke:#181818;stroke-width:1;stroke-dasharray:2.0,2.0;" x1="491.0273" x2="652.9922" y1="1049.1563" y2="1049.1563"/><text fill="#000000" font-family="sans-serif" font-size="13" lengthAdjust="spacing" textLength="116.5366" x="503.0273" y="1044.0903">Notifications Data</text><polygon fill="#181818" points="261.1235,1074.2891,251.1235,1078.2891,261.1235,1082.2891,257.1235,1078.2891" style="stroke:#181818;stroke-width:1;"/><line style="stroke:#181818;stroke-width:1;stroke-dasharray:2.0,2.0;" x1="255.1235" x2="485.0273" y1="1078.2891" y2="1078.2891"/><text fill="#000000" font-family="sans-serif" font-size="13" lengthAdjust="spacing" textLength="132.812" x="267.1235" y="1073.2231">Unread Notifications</text><polygon fill="#181818" points="238.1235,1103.4219,248.1235,1107.4219,238.1235,1111.4219,242.1235,1107.4219" style="stroke:#181818;stroke-width:1;"/><line style="stroke:#181818;stroke-width:1;" x1="86.2446" x2="244.1235" y1="1107.4219" y2="1107.4219"/><text fill="#000000" font-family="sans-serif" font-size="13" lengthAdjust="spacing" textLength="109.8589" x="93.2446" y="1102.356">View Notification</text><!--SRC=[hLJ1JiCm3BtdAtpYXZh1JZiWjMEW2OaXodP5NkE9Y9AD92qWnB-J9ktMi9PDWbxQsi_FplDhCJDh1NDDAcQuVKxO1fKHcTYWD33E1KaJTyH2N4gg91M4Bj7W4ZKnvbh0wKN3DeAOSvWQUc5rf4fwYX7SpT87Y8JDwWWvPpvU8Hh64QHOaYTeOd3QegWo3hEhRdS_6mnWTkFdIdPp9IEufzU2jB7tKZGTwcJVYCf1ey_gxL7mhyvvnq-KFVknJY3176L637FZGvDteOq6bBp9GLgiLbP8svY1lJfFkS1SS9VkRAa83S63GgdjTiLQzZErG7LTF-_jseZLXnzyzYRjqdjf7LHaw7ZJvYnx6qcs6w5SUz6hKhXQ5rOHQykfr5ivjkhrKGq7mx1wE3YtBsefE2V9IF9EGsOPRKmmSRytPGiLeQkCFjl1NX_Sar62hBE2HeV5gn3EBq7qTmFCDxmom36Bgg5fOS-YzI76IhrW3N_XhEsK51__uAGuT59GDPNbdbpjmcDyq_4hk9vOGnHMaS0LEYga_OvuTBmBz64RQE-3BjVFNRiVXFl_juMWjm3q3G00]--></g></svg>